<svg xmlns="http://www.w3.org/2000/svg" width="17" height="17" viewBox="0 0 34 34">
  <defs>
    <style>
      .cls-1 {
        fill: #44cd00;
        fill-rule: evenodd;
      }
    </style>
  </defs>
  <path class="cls-1" d="M1741,3652a17,17,0,1,0,17,17A17,17,0,0,0,1741,3652Zm6.25,23.67-0.49.5a1.139,1.139,0,0,1-1.54.04l-6.41-5.6a2.539,2.539,0,0,1-.74-1.78l0.59-10.1a1.141,1.141,0,0,1,1.12-1.06h0.7a1.127,1.127,0,0,1,1.12,1.06l0.48,8.4a3.606,3.606,0,0,0,.76,1.86l4.46,5.14A1.139,1.139,0,0,1,1747.25,3675.67Z" transform="translate(-1724 -3652)"/>
</svg>
