<svg id="vk" xmlns="http://www.w3.org/2000/svg" xmlns:xlink="http://www.w3.org/1999/xlink" width="21" height="21" viewBox="0 0 42 42">
  <defs>
    <style>
      .cls-1 {
        fill: #fff;
        filter: url(#filter);
      }

      .cls-2 {
        fill: #d60000;
        fill-rule: evenodd;
        filter: url(#filter-2);
      }
    </style>
    <filter id="filter" x="0" y="0" width="42" height="42" filterUnits="userSpaceOnUse">
      <feFlood result="flood" flood-color="#4d75a3"/>
      <feComposite result="composite" operator="in" in2="SourceGraphic"/>
      <feBlend result="blend" in2="SourceGraphic"/>
    </filter>
    <filter id="filter-2" x="1800.69" y="4017.06" width="28.75" height="16.56" filterUnits="userSpaceOnUse">
      <feFlood result="flood" flood-color="#fff"/>
      <feComposite result="composite" operator="in" in2="SourceGraphic"/>
      <feBlend result="blend" in2="SourceGraphic"/>
    </filter>
  </defs>
  <rect id="Фигура_3" data-name="Фигура 3" class="cls-1" width="42" height="42" rx="6.472" ry="6.472"/>
  <path id="Shape_F_3_copy_3" data-name="Shape F_3 copy 3" class="cls-2" d="M1814.75,4033.43h1.72a1.426,1.426,0,0,0,.78-0.35,1.213,1.213,0,0,0,.24-0.75s-0.04-2.33,1.03-2.67,2.41,2.23,3.85,3.21a2.6,2.6,0,0,0,1.91.56h3.84s2.01-.15,1.05-1.73a12.428,12.428,0,0,0-2.85-3.3c-2.41-2.24-2.09-1.88.81-5.74,1.77-2.35,2.48-3.79,2.25-4.41-0.21-.58-1.49-0.48-1.49-0.48h-4.34a1.029,1.029,0,0,0-.55.11,1.2,1.2,0,0,0-.39.5,24.461,24.461,0,0,1-1.59,3.4c-1.93,3.27-2.7,3.44-3.01,3.24-0.73-.47-0.55-1.9-0.55-2.91,0-3.17.48-4.49-.93-4.83a7.082,7.082,0,0,0-2.02-.2,9.331,9.331,0,0,0-3.59.36c-0.49.24-.87,0.78-0.64,0.81a1.993,1.993,0,0,1,1.28.64,4.2,4.2,0,0,1,.42,1.96s0.26,3.73-.59,4.19c-0.58.32-1.38-.33-3.1-3.3a25.64,25.64,0,0,1-1.54-3.23,1.311,1.311,0,0,0-.36-0.48,1.719,1.719,0,0,0-.66-0.26h-4.11a1.37,1.37,0,0,0-.84.28,0.9,0.9,0,0,0-.02.73s3.22,7.58,6.86,11.37A9.963,9.963,0,0,0,1814.75,4033.43Z" transform="translate(-1794 -4004)"/>
</svg>
