<svg xmlns="http://www.w3.org/2000/svg" width="19" height="12.5" viewBox="0 0 38 25">
  <defs>
    <style>
      .cls-1 {
        fill: #44cd00;
        fill-rule: evenodd;
      }
    </style>
  </defs>
  <path class="cls-1" d="M1741.05,3913.99h0.01a1.433,1.433,0,0,0,.79-0.23l0.07-.04a0.147,0.147,0,0,1,.04-0.02l0.72-.59,17.28-14.03a0.208,0.208,0,0,0-.16-0.08h-37.6a0.211,0.211,0,0,0-.13.05l18.08,14.65A1.427,1.427,0,0,0,1741.05,3913.99Zm-19.05-13v20.79l12.95-10.29Zm25.07,10.57,12.93,10.22v-20.72Zm-4.12,3.34a3.14,3.14,0,0,1-3.8,0l-2.96-2.41L1722,3923.76v0.04a0.2,0.2,0,0,0,.2.2h37.6a0.2,0.2,0,0,0,.2-0.2v-0.03l-14.17-11.21Z" transform="translate(-1722 -3899)"/>
</svg>
